<?xml version="1.0" encoding="UTF-8"?>
<svg id="Layer_2" data-name="Layer 2" xmlns="http://www.w3.org/2000/svg" viewBox="0 0 216.73 216.73">
  <defs>
    <style>
      .cls-1 {
        fill: #21a55e;
      }

      .cls-1, .cls-2 {
        stroke-width: 0px;
      }

      .cls-2 {
        fill: #fff;
      }
    </style>
  </defs>
  <g id="Layer_1-2" data-name="Layer 1">
    <rect class="cls-1" width="216.73" height="216.73" rx="19.14" ry="19.14"/>
    <g>
      <path class="cls-2" d="M79.32,103.65c.01-.12.03-.25.05-.38,2.16-12.34,4.61-16.01,9.63-22.31,8.45-10.6,22.84-15.54,47.21-15.62,31.03-.1,52.79,25.89,52.92,54.97.16,35.57-17.22,60.9-54.79,61.69h-24.01c-2.23,0-4.04-1.81-4.04-4.04l-1.47-11.47c0-2.23,1.81-4.04,4.04-4.04h24.86c23.53.43,37.19-20.04,36.7-42.35-.38-16.82-15.43-34.62-33.99-35.01-14.54-.31-29.9-.77-36.55,16.23-.37.96-.63,1.96-.82,2.97l-.05.28c-.22,1.19-.34,1.17-.45,2.38-.27,2.84.1,4.84-4.82,4.6l-9.1.2c-1.65.04-3.05-.15-4.35-1.18-.78-.62-1.22-2.45-1.23-3.69l.28-3.23Z"/>
      <path class="cls-2" d="M117.24,114.44l.61-2.99c.21-1.03.36-2.07.46-3.12.19-2.05.66-3.36,4.71-3.16l9.1-.2c1.65-.04,3.05.15,4.35,1.18.78.62,1.38,1.94,1.39,3.18l-.44,3.9s0,.04,0,.05c-2.16,12.47-4.61,16.14-9.66,22.47-8.45,10.6-22.84,14.32-47.21,14.39-31.03.1-52.79-24.66-52.92-53.74-.16-35.57,17.22-60.9,54.79-61.69h23.18c2.69,0,4.87,2.18,4.87,4.87l1.47,9.81c0,2.69-2.18,4.87-4.87,4.87h-24.03c-23.53-.43-37.19,20.04-36.7,42.35.38,16.82,15.43,33.39,33.99,33.78,14.54.31,29.9,1.99,36.56-15.01l.37-.96Z"/>
    </g>
  </g>
</svg>