<?xml version="1.0" encoding="UTF-8"?>
<svg id="Layer_1" data-name="Layer 1" xmlns="http://www.w3.org/2000/svg" viewBox="0 0 271.11 249.4">
  <defs>
    <style>
      .cls-1 {
        fill: #1ea45d;
      }

      .cls-1, .cls-2 {
        stroke-width: 0px;
      }

      .cls-2 {
        fill: #fff;
      }
    </style>
  </defs>
  <path class="cls-1" d="M218.69,202.16c0-13.96,10.31-25.31,25.21-25.31,14.38-.1,28.82,10.57,24.19,21.29-2.12,4.91-3.93,7.27-8.88,12.03-1.55,1.39-2.36,2.18-3.93,2.18h-5.85c-2.4,0-2.84-1.76-1.15-3.44,2.7-2.68,5.99-6.48,8.75-10.58,4.07-6.05-5.42-11.48-13.13-11.48-8.75,0-14.58,6.88-14.58,15.21s6.15,16.04,18.65,16.04h20.32c2.19,0,3.33,1.46,2.6,3.54l-1.15,3.65c-.52,1.88-1.77,2.71-3.75,2.71h-19.17c-16.98,0-28.13-11.46-28.13-25.84Z"/>
  <path class="cls-1" d="M183.74,226.64l-19.43-45c-1.04-2.19-.1-3.65,2.29-3.65h4.79c1.67,0,2.81.63,3.54,2.19l12.63,30.32,12.73-30.32c.73-1.56,1.77-2.19,3.54-2.19h4.38c2.4,0,3.33,1.46,2.29,3.65l-19.63,45c-.42,1.04-2.37,1.46-3.52,1.46-1.25,0-3.1-.42-3.62-1.46Z"/>
  <path class="cls-1" d="M13.73,246.9l-1.25-3.96c-.62-2.08.42-3.54,2.6-3.54h11.98c8.44,0,13.67-5.21,13.67-14.69v-21.25c0-10.73-6.56-16.56-15.1-16.56s-15.11,6.15-15.11,15.21,6.15,16.04,16.88,16.04h3.65c1.88,0,2.92,1.25,2.29,3.23l-1.35,4.38c-.52,1.67-1.46,2.29-3.13,2.29h-2.6c-12.08,0-26.25-8.65-26.25-25.84,0-15,11.15-25.31,25.73-25.31s25.42,10,25.42,26.25v21.56c0,15.52-9.82,24.69-23.98,24.69h-10.21c-1.67,0-2.81-.83-3.23-2.5Z"/>
  <path class="cls-1" d="M85.03,178.04h10.19c1.98,0,3.12,1.15,3.12,3.13v3.65c0,1.98-1.15,3.12-3.12,3.12h-9.05c-4.69,0-10.37,2.6-10.37,8.65v28.34c0,1.98-1.15,3.12-3.13,3.12h-4.17c-1.98,0-3.12-1.15-3.12-3.12v-29.07c0-10.83,8.6-17.82,19.64-17.82Z"/>
  <path class="cls-1" d="M108.12,181.16c0-1.98,1.15-3.13,3.12-3.13h4.17c1.98,0,3.13,1.15,3.13,3.13v24.9c0,8.13,4.58,13.13,11.77,13.13s11.77-5,11.77-13.13v-24.9c0-1.98,1.15-3.13,3.13-3.13h4.17c1.98,0,3.13,1.15,3.13,3.13v24.9c0,14.17-8.96,23.13-22.19,23.13s-22.19-8.96-22.19-23.13v-24.9Z"/>
  <rect class="cls-1" x="65.24" width="140.63" height="140.63" rx="19.14" ry="19.14"/>
  <g>
    <path class="cls-2" d="M116.71,67.25c0-.08.02-.16.03-.24,1.4-8.01,2.99-10.39,6.25-14.47,5.48-6.88,14.82-10.09,30.64-10.13,20.13-.06,34.25,16.8,34.34,35.67.1,23.08-11.17,39.52-35.55,40.03h-15.58c-1.45,0-2.62-1.17-2.62-2.62l-.95-7.44c0-1.45,1.17-2.62,2.62-2.62h16.13c15.27.28,24.13-13.01,23.81-27.48-.24-10.91-10.01-22.46-22.06-22.71-9.43-.2-19.4-.5-23.72,10.53-.24.62-.41,1.27-.53,1.93l-.03.18c-.14.77-.22.76-.29,1.55-.17,1.84.07,3.14-3.13,2.98l-5.9.13c-1.07.02-1.98-.1-2.82-.77-.5-.4-.79-1.59-.8-2.39l.18-2.1Z"/>
    <path class="cls-2" d="M141.31,74.26l.39-1.94c.14-.67.23-1.34.3-2.02.12-1.33.43-2.18,3.05-2.05l5.9-.13c1.07-.02,1.98.1,2.82.77.5.4.9,1.26.9,2.07l-.29,2.53s0,.02,0,.03c-1.4,8.09-2.99,10.47-6.27,14.58-5.48,6.88-14.82,9.29-30.64,9.34-20.13.06-34.25-16-34.34-34.87-.1-23.08,11.17-39.52,35.55-40.03h15.04c1.75,0,3.16,1.41,3.16,3.16l.95,6.36c0,1.75-1.41,3.16-3.16,3.16h-15.59c-15.27-.28-24.13,13.01-23.81,27.48.24,10.91,10.01,21.67,22.06,21.92,9.43.2,19.4,1.29,23.72-9.74l.24-.62Z"/>
  </g>
</svg>