<?xml version="1.0" encoding="UTF-8"?>
<svg xmlns="http://www.w3.org/2000/svg" width="77" height="20" viewBox="0 0 77 20" fill="none">
  <g clip-path="url(#clip0_7368_4427)">
    <path d="M25.5893 16.8476L25.3416 16.0577C25.2129 15.6461 25.4235 15.3516 25.8643 15.3516H28.2536C29.9348 15.3516 30.9822 14.314 30.9822 12.4241V8.1839C30.9822 6.04625 29.6676 4.87991 27.9688 4.87991C26.27 4.87991 24.9554 6.10867 24.9554 7.91864C24.9554 9.72862 26.1861 11.1212 28.3277 11.1212H29.0532C29.4297 11.1212 29.6306 11.3689 29.5135 11.7629L29.2463 12.6347C29.1449 12.9643 28.9518 13.0931 28.6222 13.0931H28.0995C25.6829 13.0931 22.8529 11.367 22.8529 7.9362C22.8529 4.50543 25.0764 2.88855 27.9903 2.88855C30.9042 2.88855 33.0711 4.87991 33.0711 8.12734V12.4319C33.0711 15.5233 31.1148 17.3586 28.2848 17.3586H26.2447C25.9131 17.3586 25.6829 17.1928 25.601 16.8632L25.5913 16.8456L25.5893 16.8476Z" fill="currentColor"></path>
    <path d="M39.8312 3.1109H41.8616C42.2555 3.1109 42.4857 3.3391 42.4857 3.73503V4.45863C42.4857 4.85456 42.2555 5.08276 41.8616 5.08276H40.0516C39.1134 5.08276 37.9842 5.60547 37.9842 6.80887V12.4611C37.9842 12.8571 37.754 13.0853 37.36 13.0853H36.5233C36.1293 13.0853 35.8992 12.8571 35.8992 12.4611V6.66064C35.8992 4.50544 37.6175 3.1109 39.8234 3.1109H39.8312Z" fill="currentColor"></path>
    <path d="M44.4439 3.73503C44.4439 3.3391 44.6741 3.1109 45.068 3.1109H45.9048C46.2987 3.1109 46.5289 3.3391 46.5289 3.73503V8.69881C46.5289 10.3235 47.4475 11.3143 48.8811 11.3143C50.3146 11.3143 51.2333 10.3137 51.2333 8.69881V3.73503C51.2333 3.3391 51.4615 3.1109 51.8574 3.1109H52.6922C53.0881 3.1109 53.3163 3.3391 53.3163 3.73503V8.69881C53.3163 11.5249 51.5258 13.3154 48.8869 13.3154C46.248 13.3154 44.4576 11.5249 44.4576 8.69881V3.73503H44.44H44.4439Z" fill="currentColor"></path>
    <path d="M59.5478 12.82L55.6704 3.84622C55.4598 3.40543 55.6529 3.12067 56.1307 3.12067H57.0864C57.418 3.12067 57.6481 3.24939 57.7944 3.56146L60.3202 9.60966L62.8655 3.56146C63.0117 3.24939 63.2146 3.12067 63.5715 3.12067H64.4453C64.9231 3.12067 65.1065 3.41518 64.9056 3.84622L60.9814 12.82C60.8995 13.0307 60.5035 13.1145 60.2753 13.1145C60.0471 13.1145 59.659 13.0307 59.5498 12.82H59.5478Z" fill="currentColor"></path>
    <path d="M66.5225 7.93814C66.5225 5.15686 68.5801 2.89049 71.5584 2.89049C74.4255 2.87294 77.3179 5.00083 76.3915 7.13847C75.9683 8.12147 75.6094 8.58762 74.6166 9.54332C74.3046 9.81832 74.1485 9.97436 73.8365 9.97436H72.6682C72.1903 9.97436 72.0987 9.62523 72.44 9.28586C72.9822 8.7534 73.6336 7.99275 74.1856 7.17553C75.0028 5.96433 73.1012 4.88185 71.5662 4.88185C70.0312 4.88185 68.6543 6.25884 68.6543 7.92058C68.6543 9.58233 69.885 11.1231 72.3756 11.1231H76.4364C76.8772 11.1231 77.0976 11.4177 76.961 11.8311L76.7309 12.5547C76.6295 12.9312 76.3818 13.097 75.978 13.097H72.1474C68.7557 13.097 66.5244 10.8111 66.5244 7.94008L66.5225 7.93814Z" fill="currentColor"></path>
    <path d="M12.3402 16.7013H10.1363C9.93341 16.7013 9.76958 16.5355 9.76958 16.3346L9.6311 15.2795C9.6311 15.0766 9.79688 14.9128 9.99777 14.9128H12.2856C14.4447 14.9498 15.7027 13.0677 15.6578 11.0295C15.6208 9.48872 14.2438 7.85428 12.5333 7.81722C11.2012 7.78992 9.78518 7.74311 9.1708 9.30343C9.13374 9.3951 9.11619 9.48677 9.09669 9.57844V9.60574C9.06938 9.71496 9.05963 9.71496 9.04988 9.82614C9.02257 10.0836 9.05963 10.2669 8.60908 10.2474L7.77236 10.265C7.61633 10.265 7.4876 10.2474 7.37643 10.1558C7.30231 10.1011 7.26526 9.93536 7.26526 9.81639L7.29256 9.52187V9.48482C7.4954 8.35748 7.7158 8.01616 8.17414 7.43884C8.9465 6.46559 10.2689 6.01505 12.5118 6.00725C15.3594 6.00725 17.3625 8.38284 17.3722 11.0549C17.3898 14.3218 15.7924 16.6428 12.3363 16.7169V16.6994L12.3402 16.7013ZM2.53553 8.84703C2.52577 5.58011 4.11535 3.25913 7.57147 3.18501H9.70326C9.95096 3.18501 10.1538 3.38785 10.1538 3.6336L10.2923 4.53274C10.2923 4.78044 10.0894 4.98328 9.84174 4.98328H7.63583C5.47674 4.94623 4.21872 6.81861 4.26358 8.86459C4.30064 10.4054 5.67763 11.9287 7.38813 11.9657C8.72026 11.993 10.1363 12.1491 10.7506 10.5887L10.7877 10.4971L10.8423 10.2221C10.8599 10.1304 10.8794 10.0309 10.8794 9.93731C10.8969 9.74422 10.9437 9.62525 11.3104 9.6428L12.1471 9.62525C12.2953 9.62525 12.4319 9.6428 12.5509 9.73447C12.625 9.78908 12.6796 9.90805 12.6796 10.029L12.6425 10.3859C12.4397 11.5327 12.2193 11.8721 11.7512 12.4514C10.9788 13.4246 9.65645 13.7621 7.41349 13.7738C4.5659 13.7738 2.56283 11.5074 2.55308 8.84508H2.53553V8.84703ZM18.1563 0H1.75536C0.789914 0 0 0.789914 0 1.75341V18.1232C0 19.0964 0.789914 19.8766 1.75536 19.8766H18.1466C19.1198 19.8766 19.9019 19.0867 19.9019 18.1232V1.75341C19.9019 0.780162 19.112 0 18.1466 0H18.1563Z" fill="currentColor"></path>
  </g>
  <defs>
    <clipPath id="clip0_7368_4427">
      <rect width="77" height="19.8766" fill="white"></rect>
    </clipPath>
  </defs>
</svg>
