<?xml version="1.0" encoding="UTF-8"?>
<svg id="Layer_1" data-name="Layer 1" xmlns="http://www.w3.org/2000/svg" viewBox="0 0 838 216.73">
  <defs>
    <style>
      .cls-1 {
        fill: #000;
        stroke-width: 0px;
      }
    </style>
  </defs>
  <g>
    <path class="cls-1" d="M278.49,183.63l-2.72-8.6c-1.36-4.53.91-7.7,5.66-7.7h26.05c18.34,0,29.72-11.32,29.72-31.93v-46.2c0-23.33-14.27-36.01-32.84-36.01s-32.84,13.36-32.84,33.06,13.36,34.88,36.69,34.88h7.93c4.08,0,6.34,2.72,4.98,7.02l-2.94,9.51c-1.13,3.62-3.17,4.98-6.8,4.98h-5.66c-26.27,0-57.07-18.8-57.07-56.16,0-32.61,24.23-55.03,55.94-55.03s55.26,21.74,55.26,57.07v46.88c0,33.74-21.34,53.67-52.14,53.67h-22.19c-3.62,0-6.11-1.81-7.02-5.44Z"/>
    <path class="cls-1" d="M433.49,33.94h22.15c4.3,0,6.79,2.49,6.79,6.8v7.93c0,4.3-2.49,6.79-6.79,6.79h-19.66c-10.19,0-22.54,5.66-22.54,18.8v61.6c0,4.3-2.49,6.79-6.8,6.79h-9.06c-4.3,0-6.79-2.49-6.79-6.79v-63.18c0-23.55,18.69-38.73,42.7-38.73Z"/>
    <path class="cls-1" d="M483.7,40.73c0-4.3,2.49-6.8,6.79-6.8h9.06c4.3,0,6.8,2.49,6.8,6.8v54.12c0,17.67,9.96,28.53,25.59,28.53s25.59-10.87,25.59-28.53v-54.12c0-4.3,2.49-6.8,6.8-6.8h9.06c4.3,0,6.8,2.49,6.8,6.8v54.12c0,30.8-19.48,50.28-48.24,50.28s-48.24-19.48-48.24-50.28v-54.12Z"/>
    <path class="cls-1" d="M648.09,139.7l-42.23-97.83c-2.26-4.76-.23-7.93,4.98-7.93h10.42c3.62,0,6.12,1.36,7.7,4.76l27.46,65.9,27.68-65.9c1.58-3.4,3.85-4.76,7.7-4.76h9.51c5.21,0,7.25,3.17,4.98,7.93l-42.68,97.83c-.91,2.27-5.15,3.17-7.65,3.17-2.72,0-6.74-.91-7.87-3.17Z"/>
    <path class="cls-1" d="M724.05,86.48c0-30.35,22.42-55.03,54.8-55.03,31.25-.23,62.65,22.99,52.59,46.27-4.61,10.68-8.55,15.8-19.31,26.16-3.38,3.02-5.14,4.73-8.54,4.73h-12.72c-5.21,0-6.18-3.84-2.51-7.47,5.88-5.83,13.01-14.09,19.02-23,8.86-13.15-11.78-24.95-28.53-24.95-19.02,0-31.7,14.95-31.7,33.06s13.36,34.88,40.54,34.88h44.17c4.76,0,7.25,3.17,5.66,7.7l-2.49,7.93c-1.13,4.08-3.85,5.89-8.15,5.89h-41.68c-36.91,0-61.15-24.91-61.15-56.16Z"/>
  </g>
  <path class="cls-1" d="M197.59,0H19.14C8.57,0,0,8.57,0,19.14v178.45c0,10.57,8.57,19.14,19.14,19.14h178.45c10.57,0,19.14-8.57,19.14-19.14V19.14c0-10.57-8.57-19.14-19.14-19.14ZM27.6,96.42c-.15-35.58,17.22-60.91,54.79-61.7h23.18c2.69,0,4.87,2.18,4.87,4.87l1.47,9.81c0,2.69-2.18,4.87-4.87,4.87h-24.03c-23.53-.43-37.19,20.04-36.69,42.35.37,16.82,15.42,33.39,33.99,33.78,14.54.31,29.9,2,36.56-15l.37-.96.61-2.99c.2-1.03.36-2.07.45-3.11.19-2.05.67-3.36,4.71-3.17l9.1-.19c1.65-.04,3.05.15,4.35,1.18.77.62,1.38,1.94,1.38,3.18l-.44,3.9s-.01.04-.01.06c-2.16,12.46-4.61,16.14-9.66,22.47-8.45,10.6-22.84,14.31-47.21,14.39-31.03.09-52.79-24.66-52.92-53.74ZM134.34,182h-24.01c-2.23,0-4.04-1.8-4.04-4.04l-1.47-11.46c0-2.23,1.81-4.04,4.04-4.04h24.86c23.53.43,37.19-20.05,36.69-42.35-.37-16.83-15.42-34.62-33.99-35.01-14.54-.31-29.9-.77-36.56,16.23-.37.96-.62,1.96-.81,2.97l-.05.27c-.22,1.2-.34,1.18-.46,2.39-.26,2.83.11,4.83-4.82,4.59l-9.1.2c-1.65.04-3.05-.15-4.34-1.18-.78-.62-1.23-2.45-1.24-3.69l.28-3.23c.01-.13.03-.26.05-.38,2.15-12.34,4.61-16.01,9.63-22.31,8.45-10.6,22.84-15.54,47.21-15.61,31.03-.1,52.79,25.88,52.92,54.96.16,35.58-17.22,60.9-54.79,61.69Z"/>
</svg>